<svg width="226.000000" height="63.000000" viewBox="0 0 226 63" fill="none" xmlns="http://www.w3.org/2000/svg" xmlns:xlink="http://www.w3.org/1999/xlink">
	<desc>
			Created with Pixso.
	</desc>
	<defs>
		<clipPath id="clip2_762">
			<rect rx="0.000000" width="225.000000" height="62.000000" transform="translate(0.500000 0.500000)" fill="white" fill-opacity="0"/>
		</clipPath>
	</defs>
	<rect rx="0.000000" width="225.000000" height="62.000000" transform="translate(0.500000 0.500000)" fill="#FFFFFF" fill-opacity="0"/>
	<g clip-path="url(#clip2_762)">
		<g opacity="0.800000">
			<path d="M73.39 29.1L73.9 29.1C75.12 29.1 75.48 28.45 75.81 27.7L78.57 21L77.54 21L75.53 25.96L73.32 21L72.28 21L75.04 27.12L74.92 27.42C74.75 27.81 74.46 28.2 73.89 28.2L73.39 28.2L73.39 29.1ZM83.54 23L82.62 23L82.62 26.04C82.18 26.17 81.72 26.25 81.17 26.25C80.42 26.25 79.84 25.82 79.84 24.9L79.84 22.98L78.92 22.98L78.92 24.9C78.92 26.37 79.81 27.1 81.17 27.1C81.74 27.1 82.19 27.03 82.62 26.9L82.62 29L83.54 29L83.54 23ZM87.75 29.12C88.97 29.12 89.86 28.51 90.14 27.6L89.25 27.35C89.02 27.98 88.47 28.29 87.75 28.29C86.67 28.29 85.92 27.59 85.88 26.31L90.24 26.31L90.24 25.92C90.24 23.68 88.91 22.92 87.66 22.92C86.03 22.92 84.95 24.2 84.95 26.04C84.95 27.89 86.02 29.12 87.75 29.12ZM85.88 25.51C85.94 24.58 86.6 23.75 87.66 23.75C88.66 23.75 89.3 24.5 89.3 25.51L85.88 25.51ZM96.09 20.75C95.8 20.99 95.36 20.99 94.75 20.99C94.55 20.99 94.33 20.99 94.09 21C92.26 21.04 91.36 22.43 91.36 25.1L91.36 25.75C91.36 27.96 92.43 29.12 94.04 29.12C95.65 29.12 96.72 27.96 96.72 26.07C96.72 24.18 95.63 23.18 94.23 23.18C93.41 23.18 92.64 23.53 92.23 24.28L92.15 24.28C92.28 22.73 92.86 21.9 94.11 21.85C95.22 21.81 96.01 21.84 96.56 21.31L96.09 20.75ZM94.04 28.29C92.95 28.29 92.28 27.42 92.28 26.07C92.3 24.76 92.96 24.01 94.03 24.01C95.13 24.01 95.79 24.76 95.79 26.07C95.79 27.42 95.13 28.29 94.04 28.29ZM99.05 23L98.13 23L98.13 29L99.05 29L99.05 26.43L101.92 26.43L101.92 29L102.85 29L102.85 23L101.92 23L101.92 25.57L99.05 25.57L99.05 23ZM105.45 25.17L105.45 23L104.53 23L104.53 29L107.04 29C108.45 29 109.22 28.14 109.22 27.06C109.22 25.96 108.45 25.17 107.04 25.17L105.45 25.17ZM110.17 29L111.09 29L111.09 23L110.17 23L110.17 29ZM105.45 26.03L107.04 26.03C107.77 26.03 108.29 26.47 108.29 27.1C108.29 27.71 107.77 28.14 107.04 28.14L105.45 28.14L105.45 26.03ZM113.7 27.64L113.7 23L112.78 23L112.78 29L113.86 29L116.73 24.35L116.73 29L117.65 29L117.65 23L116.59 23L113.7 27.64ZM115.98 21C115.98 21.4 115.76 21.76 115.22 21.76C114.67 21.76 114.47 21.4 114.47 21L113.61 21C113.61 21.84 114.23 22.43 115.22 22.43C116.22 22.43 116.84 21.84 116.84 21L115.98 21ZM127.15 23L126.23 23L126.23 28.14L123.36 28.14L123.36 23L122.44 23L122.44 29L127.08 29L127.08 30.93L128 30.93L128 28.14L127.15 28.14L127.15 23ZM131.87 29.12C133.09 29.12 133.98 28.51 134.26 27.6L133.37 27.35C133.14 27.98 132.59 28.29 131.87 28.29C130.79 28.29 130.04 27.59 130 26.31L134.35 26.31L134.35 25.92C134.35 23.68 133.03 22.92 131.78 22.92C130.15 22.92 129.07 24.2 129.07 26.04C129.07 27.89 130.14 29.12 131.87 29.12ZM130 25.51C130.06 24.58 130.72 23.75 131.78 23.75C132.78 23.75 133.42 24.5 133.42 25.51L130 25.51ZM136.68 23L135.76 23L135.76 29L136.68 29L136.68 26.43L139.55 26.43L139.55 29L140.47 29L140.47 23L139.55 23L139.55 25.57L136.68 25.57L136.68 23ZM141.34 23.85L143.33 23.85L143.33 29L144.25 29L144.25 23.85L146.22 23.85L146.22 23L141.34 23L141.34 23.85ZM147.56 31.25L148.48 31.25L148.48 28.07L148.56 28.07C148.77 28.4 149.16 29.12 150.31 29.12C151.81 29.12 152.86 27.92 152.86 26.01C152.86 24.12 151.81 22.92 150.3 22.92C149.12 22.92 148.77 23.64 148.56 23.95L148.45 23.95L148.45 23L147.56 23L147.56 31.25ZM148.47 26C148.47 24.65 149.06 23.75 150.19 23.75C151.36 23.75 151.94 24.73 151.94 26C151.94 27.28 151.34 28.29 150.19 28.29C149.08 28.29 148.47 27.35 148.47 26ZM74.82 36.78C75.76 36.78 76.32 37.64 76.44 38.54L74.21 38.54L74.21 39.4L76.45 39.4C76.35 40.32 75.77 41.24 74.82 41.25C74.12 41.24 73.46 40.63 73.46 39.95L72.56 39.95C72.56 41.14 73.51 42.1 74.82 42.1C76.46 42.1 77.39 40.71 77.39 39.12L77.39 38.9C77.39 37.31 76.46 35.92 74.82 35.92C73.65 35.92 72.56 36.88 72.56 37.92L73.46 37.92C73.46 37.3 74.2 36.78 74.82 36.78ZM81.23 42.12C82.56 42.12 83.43 41.31 83.59 40.25L82.66 40.25C82.49 40.9 81.95 41.29 81.23 41.29C80.13 41.29 79.43 40.39 79.43 39C79.43 37.64 80.15 36.75 81.23 36.75C82.04 36.75 82.52 37.25 82.66 37.79L83.59 37.79C83.43 36.67 82.48 35.92 81.21 35.92C79.59 35.92 78.51 37.2 78.51 39.03C78.51 40.82 79.54 42.12 81.23 42.12ZM84.46 36.85L86.45 36.85L86.45 42L87.37 42L87.37 36.85L89.34 36.85L89.34 36L84.46 36L84.46 36.85ZM92.89 42.12C94.1 42.12 95 41.51 95.28 40.6L94.39 40.35C94.15 40.98 93.61 41.29 92.89 41.29C91.8 41.29 91.06 40.59 91.01 39.31L95.37 39.31L95.37 38.92C95.37 36.68 94.04 35.92 92.79 35.92C91.17 35.92 90.09 37.2 90.09 39.04C90.09 40.89 91.15 42.12 92.89 42.12ZM91.01 38.51C91.08 37.58 91.74 36.75 92.79 36.75C93.79 36.75 94.43 37.5 94.43 38.51L91.01 38.51ZM96.21 36.85L98.2 36.85L98.2 42L99.12 42L99.12 36.85L101.09 36.85L101.09 36L96.21 36L96.21 36.85ZM103.36 40.64L103.36 36L102.43 36L102.43 42L103.51 42L106.39 37.35L106.39 42L107.31 42L107.31 36L106.25 36L103.36 40.64ZM113.62 36L112.7 36L112.7 39.04C112.26 39.17 111.8 39.25 111.25 39.25C110.5 39.25 109.92 38.82 109.92 37.9L109.92 35.98L109 35.98L109 37.9C109 39.37 109.89 40.1 111.25 40.1C111.81 40.1 112.27 40.03 112.7 39.9L112.7 42L113.62 42L113.62 36ZM117.83 42.12C119.05 42.12 119.94 41.51 120.22 40.6L119.33 40.35C119.1 40.98 118.55 41.29 117.83 41.29C116.75 41.29 116 40.59 115.96 39.31L120.31 39.31L120.31 38.92C120.31 36.68 118.99 35.92 117.74 35.92C116.11 35.92 115.03 37.2 115.03 39.04C115.03 40.89 116.1 42.12 117.83 42.12ZM115.96 38.51C116.02 37.58 116.68 36.75 117.74 36.75C118.74 36.75 119.38 37.5 119.38 38.51L115.96 38.51ZM124.15 42.12C125.48 42.12 126.36 41.31 126.51 40.25L125.59 40.25C125.42 40.9 124.87 41.29 124.15 41.29C123.06 41.29 122.36 40.39 122.36 39C122.36 37.64 123.08 36.75 124.15 36.75C124.97 36.75 125.45 37.25 125.59 37.79L126.51 37.79C126.36 36.67 125.4 35.92 124.14 35.92C122.51 35.92 121.43 37.2 121.43 39.03C121.43 40.82 122.47 42.12 124.15 42.12ZM127.86 42L128.78 42L128.78 39.46L129.61 39.46L131.58 42L132.77 42L130.31 38.89L132.74 36L131.55 36L129.39 38.6L128.78 38.6L128.78 36L127.86 36L127.86 42ZM135.96 42.12C137.58 42.12 138.68 40.89 138.68 39.03C138.68 37.15 137.58 35.92 135.96 35.92C134.33 35.92 133.24 37.15 133.24 39.03C133.24 40.89 134.33 42.12 135.96 42.12ZM135.96 41.29C134.72 41.29 134.16 40.23 134.16 39.03C134.16 37.82 134.72 36.75 135.96 36.75C137.19 36.75 137.76 37.82 137.76 39.03C137.76 40.23 137.19 41.29 135.96 41.29ZM141.01 40.64L141.01 36L140.09 36L140.09 42L141.16 42L144.04 37.35L144.04 42L144.96 42L144.96 36L143.9 36L141.01 40.64ZM143.29 34C143.29 34.4 143.07 34.76 142.52 34.76C141.98 34.76 141.77 34.4 141.77 34L140.91 34C140.91 34.84 141.54 35.43 142.52 35.43C143.52 35.43 144.15 34.84 144.15 34L143.29 34ZM149.74 42L150.66 42L150.66 39.46L151.49 39.46L153.46 42L154.65 42L152.2 38.89L154.62 36L153.43 36L151.27 38.6L150.66 38.6L150.66 36L149.74 36L149.74 42ZM157.84 42.12C159.47 42.12 160.56 40.89 160.56 39.03C160.56 37.15 159.47 35.92 157.84 35.92C156.22 35.92 155.12 37.15 155.12 39.03C155.12 40.89 156.22 42.12 157.84 42.12ZM157.84 41.29C156.61 41.29 156.04 40.23 156.04 39.03C156.04 37.82 156.61 36.75 157.84 36.75C159.08 36.75 159.64 37.82 159.64 39.03C159.64 40.23 159.08 41.29 157.84 41.29ZM164.4 42.12C165.73 42.12 166.61 41.31 166.76 40.25L165.84 40.25C165.67 40.9 165.12 41.29 164.4 41.29C163.31 41.29 162.61 40.39 162.61 39C162.61 37.64 163.33 36.75 164.4 36.75C165.22 36.75 165.7 37.25 165.84 37.79L166.76 37.79C166.61 36.67 165.65 35.92 164.39 35.92C162.76 35.92 161.69 37.2 161.69 39.03C161.69 40.82 162.72 42.12 164.4 42.12ZM171.39 40.75L169.33 36L168.11 36L168.11 42L169.03 42L169.03 37.32L171.02 42L171.77 42L173.75 37.41L173.75 42L174.67 42L174.67 36L173.49 36L171.39 40.75ZM178.88 42.12C180.1 42.12 180.99 41.51 181.27 40.6L180.38 40.35C180.14 40.98 179.6 41.29 178.88 41.29C177.8 41.29 177.05 40.59 177.01 39.31L181.36 39.31L181.36 38.92C181.36 36.68 180.03 35.92 178.78 35.92C177.16 35.92 176.08 37.2 176.08 39.04C176.08 40.89 177.14 42.12 178.88 42.12ZM177.01 38.51C177.07 37.58 177.73 36.75 178.78 36.75C179.78 36.75 180.42 37.5 180.42 38.51L177.01 38.51ZM182.21 36.85L184.19 36.85L184.19 42L185.11 42L185.11 36.85L187.08 36.85L187.08 36L182.21 36L182.21 36.85ZM190.55 42.12C192.18 42.12 193.27 40.89 193.27 39.03C193.27 37.15 192.18 35.92 190.55 35.92C188.93 35.92 187.83 37.15 187.83 39.03C187.83 40.89 188.93 42.12 190.55 42.12ZM190.55 41.29C189.32 41.29 188.75 40.23 188.75 39.03C188.75 37.82 189.32 36.75 190.55 36.75C191.79 36.75 192.35 37.82 192.35 39.03C192.35 40.23 191.79 41.29 190.55 41.29ZM194.15 42L194.46 42C195.79 42 196.17 40.96 196.26 39L196.35 36.85L198.55 36.85L198.55 42L199.47 42L199.47 36L195.47 36L195.36 38.65C195.29 40.67 195.08 41.14 194.36 41.14L194.15 41.14L194.15 42ZM203.6 42.12C205.23 42.12 206.32 40.89 206.32 39.03C206.32 37.15 205.23 35.92 203.6 35.92C201.98 35.92 200.88 37.15 200.88 39.03C200.88 40.89 201.98 42.12 203.6 42.12ZM203.6 41.29C202.37 41.29 201.81 40.23 201.81 39.03C201.81 37.82 202.37 36.75 203.6 36.75C204.84 36.75 205.4 37.82 205.4 39.03C205.4 40.23 204.84 41.29 203.6 41.29ZM211.43 36L207.73 36L207.73 42L208.65 42L208.65 36.85L211.43 36.85L211.43 36ZM213.7 40.64L213.7 36L212.78 36L212.78 42L213.86 42L216.73 37.35L216.73 42L217.65 42L217.65 36L216.59 36L213.7 40.64ZM220.26 40.64L220.26 36L219.34 36L219.34 42L220.42 42L223.29 37.35L223.29 42L224.22 42L224.22 36L223.15 36L220.26 40.64Z" fill="#1C1E23" fill-opacity="1.000000" fill-rule="nonzero"/>
		</g>
		<path d="M61.2 31.42C61.2 25.21 59.41 19.13 56.04 13.96C52.68 8.79 47.9 4.77 42.31 2.39C36.72 0.01 30.56 -0.61 24.63 0.6C18.69 1.81 13.24 4.8 8.96 9.2C4.68 13.6 1.76 19.2 0.58 25.29C-0.6 31.39 0.01 37.71 2.32 43.45C4.64 49.19 8.56 54.1 13.6 57.55C18.63 61.01 24.55 62.85 30.6 62.85C34.62 62.85 38.6 62.04 42.31 60.46C46.02 58.88 49.4 56.56 52.24 53.65C55.08 50.73 57.33 47.26 58.87 43.45C60.41 39.64 61.2 35.55 61.2 31.42Z" fill="#B7ECB1" fill-opacity="1.000000" fill-rule="nonzero"/>
		<path d="M13.03 24.76L14.69 24.76L9.76 36.79L9.38 36.79L4.35 24.76L6.03 24.76L9.54 33.17L13.03 24.76Z" fill="#91BD9D" fill-opacity="1.000000" fill-rule="nonzero"/>
		<path d="M19.56 31.99L19.56 35.36C19.56 35.63 19.65 35.76 19.83 35.76C20.15 35.7 20.44 35.56 20.69 35.34L20.69 36.3C20.43 36.48 20.15 36.63 19.86 36.76C19.65 36.84 19.43 36.89 19.2 36.89C18.55 36.89 18.17 36.62 18.05 36.1C17.47 36.59 16.74 36.86 15.99 36.87C15.74 36.88 15.49 36.83 15.26 36.74C15.03 36.64 14.82 36.5 14.65 36.32C14.47 36.15 14.33 35.93 14.24 35.7C14.15 35.46 14.11 35.21 14.12 34.96C14.11 34.46 14.3 33.98 14.64 33.62C15.05 33.19 15.56 32.88 16.13 32.7L18.07 32.02L18.07 31.6C18.07 30.65 17.61 30.17 16.69 30.17C15.85 30.17 15.05 30.61 14.26 31.49L14.26 29.76C14.86 29.05 15.71 28.7 16.81 28.69C17.53 28.66 18.24 28.9 18.8 29.37C19.17 29.7 19.42 30.15 19.51 30.65C19.55 31.1 19.57 31.55 19.56 32L19.56 31.99ZM18.07 35.19L18.07 32.84L17.05 33.25C16.65 33.39 16.28 33.6 15.95 33.89C15.75 34.1 15.64 34.39 15.64 34.69C15.64 34.98 15.75 35.27 15.95 35.49C16.06 35.59 16.18 35.67 16.32 35.72C16.45 35.77 16.6 35.8 16.74 35.79C17 35.79 17.24 35.73 17.48 35.62C17.71 35.52 17.91 35.37 18.09 35.18L18.07 35.19Z" fill="#91BD9D" fill-opacity="1.000000" fill-rule="nonzero"/>
		<path d="M23.59 24.76L22.07 24.76L22.07 36.74L23.59 36.74L23.59 24.76Z" fill="#91BD9D" fill-opacity="1.000000" fill-rule="nonzero"/>
		<path d="M35.28 24.76L36.84 24.76L36.84 36.74L35.16 36.74L35.16 27.42L31.57 32.05L31.26 32.05L27.63 27.42L27.63 36.74L25.96 36.74L25.96 24.76L27.54 24.76L31.42 29.68L35.28 24.76Z" fill="#91BD9D" fill-opacity="1.000000" fill-rule="nonzero"/>
		<path d="M43.97 32L43.97 35.36C43.97 35.63 44.06 35.76 44.24 35.76C44.56 35.7 44.85 35.56 45.1 35.34L45.1 36.3C44.84 36.48 44.56 36.63 44.27 36.76C44.06 36.84 43.84 36.89 43.61 36.89C42.96 36.89 42.58 36.62 42.46 36.1C41.88 36.59 41.15 36.86 40.4 36.87C40.15 36.88 39.9 36.83 39.67 36.74C39.45 36.64 39.24 36.5 39.06 36.32C38.89 36.15 38.75 35.93 38.65 35.7C38.56 35.46 38.52 35.21 38.53 34.96C38.53 34.46 38.71 33.98 39.05 33.62C39.46 33.19 39.97 32.88 40.54 32.7L42.49 32.02L42.49 31.6C42.49 30.65 42.02 30.17 41.1 30.17C40.27 30.17 39.46 30.61 38.68 31.49L38.68 29.76C39.27 29.05 40.12 28.7 41.22 28.69C41.94 28.66 42.66 28.89 43.22 29.36C43.4 29.52 43.55 29.72 43.67 29.93C43.8 30.15 43.88 30.39 43.92 30.65C43.97 31.09 43.99 31.54 43.98 32L43.97 32ZM42.49 35.18L42.49 32.84L41.47 33.24C41.07 33.38 40.7 33.6 40.37 33.88C40.17 34.09 40.05 34.38 40.05 34.68C40.05 34.97 40.16 35.26 40.36 35.48C40.46 35.58 40.58 35.66 40.72 35.71C40.86 35.77 41 35.79 41.14 35.79C41.4 35.78 41.65 35.72 41.88 35.62C42.11 35.51 42.32 35.36 42.49 35.17L42.49 35.18Z" fill="#91BD9D" fill-opacity="1.000000" fill-rule="nonzero"/>
		<path d="M48.07 28.85L48.07 30.66L48.16 30.52C48.89 29.3 49.63 28.68 50.36 28.68C50.94 28.68 51.53 28.98 52.15 29.57L51.35 30.95C50.82 30.43 50.33 30.18 49.88 30.18C49.62 30.18 49.38 30.25 49.16 30.38C48.93 30.5 48.74 30.68 48.6 30.9C48.24 31.39 48.05 31.99 48.06 32.6L48.06 36.74L46.54 36.74L46.54 28.85L48.07 28.85Z" fill="#91BD9D" fill-opacity="1.000000" fill-rule="nonzero"/>
		<path d="M54.01 25.53C54.13 25.53 54.25 25.55 54.36 25.59C54.47 25.64 54.57 25.71 54.65 25.79C54.74 25.88 54.81 25.98 54.85 26.09C54.9 26.2 54.92 26.32 54.92 26.45C54.91 26.69 54.82 26.92 54.65 27.09C54.48 27.26 54.26 27.36 54.02 27.36C53.91 27.36 53.79 27.34 53.68 27.29C53.58 27.24 53.48 27.17 53.4 27.08C53.32 27 53.25 26.9 53.21 26.79C53.16 26.68 53.14 26.56 53.14 26.44C53.14 26.32 53.16 26.2 53.21 26.09C53.25 25.98 53.32 25.88 53.4 25.8C53.48 25.71 53.58 25.64 53.68 25.59C53.79 25.54 53.91 25.52 54.02 25.52L54.01 25.53ZM53.25 28.85L54.78 28.85L54.78 36.74L53.25 36.74L53.25 28.85Z" fill="#91BD9D" fill-opacity="1.000000" fill-rule="nonzero"/>
		<path d="M13.36 24.45L15.02 24.45L10.08 36.49L9.71 36.49L4.68 24.45L6.36 24.45L9.87 32.87L13.36 24.45Z" fill="#FFFFFF" fill-opacity="1.000000" fill-rule="nonzero"/>
		<path d="M19.89 31.69L19.89 35.05C19.89 35.32 19.98 35.46 20.16 35.46C20.48 35.4 20.77 35.25 21.02 35.04L21.02 35.99C20.76 36.17 20.48 36.33 20.19 36.46C19.98 36.54 19.75 36.58 19.53 36.58C18.88 36.58 18.49 36.32 18.38 35.79C17.79 36.28 17.07 36.55 16.31 36.56C16.07 36.57 15.82 36.53 15.59 36.43C15.36 36.34 15.15 36.2 14.98 36.02C14.8 35.84 14.66 35.63 14.57 35.39C14.48 35.16 14.44 34.9 14.44 34.65C14.44 34.15 14.63 33.67 14.96 33.32C15.38 32.89 15.89 32.57 16.45 32.4L18.4 31.71L18.4 31.29C18.4 30.34 17.94 29.87 17.01 29.87C16.18 29.87 15.38 30.31 14.59 31.19L14.59 29.46C15.18 28.75 16.04 28.39 17.14 28.39C17.86 28.35 18.57 28.59 19.13 29.06C19.31 29.22 19.46 29.42 19.58 29.63C19.71 29.85 19.79 30.09 19.84 30.35C19.88 30.79 19.9 31.24 19.89 31.7L19.89 31.69ZM18.4 34.88L18.4 32.54L17.38 32.94C16.98 33.08 16.61 33.3 16.28 33.58C16.08 33.79 15.97 34.08 15.97 34.38C15.97 34.68 16.08 34.96 16.28 35.18C16.39 35.28 16.51 35.36 16.65 35.42C16.78 35.47 16.93 35.49 17.07 35.49C17.32 35.48 17.57 35.42 17.8 35.32C18.03 35.21 18.24 35.06 18.41 34.87L18.4 34.88Z" fill="#FFFFFF" fill-opacity="1.000000" fill-rule="nonzero"/>
		<path d="M23.91 24.45L22.39 24.45L22.39 36.44L23.91 36.44L23.91 24.45Z" fill="#FFFFFF" fill-opacity="1.000000" fill-rule="nonzero"/>
		<path d="M35.6 24.45L37.16 24.45L37.16 36.43L35.49 36.43L35.49 27.11L31.9 31.74L31.59 31.74L27.96 27.11L27.96 36.43L26.29 36.43L26.29 24.45L27.87 24.45L31.75 29.37L35.6 24.45Z" fill="#FFFFFF" fill-opacity="1.000000" fill-rule="nonzero"/>
		<path d="M44.3 31.69L44.3 35.05C44.3 35.32 44.39 35.46 44.57 35.46C44.89 35.4 45.18 35.25 45.43 35.04L45.43 35.99C45.17 36.17 44.89 36.33 44.6 36.46C44.39 36.54 44.17 36.58 43.94 36.58C43.29 36.58 42.91 36.32 42.79 35.79C42.21 36.28 41.48 36.55 40.72 36.56C40.48 36.57 40.23 36.53 40 36.43C39.77 36.34 39.56 36.2 39.39 36.02C39.21 35.84 39.07 35.63 38.98 35.39C38.89 35.16 38.85 34.9 38.85 34.65C38.85 34.15 39.04 33.67 39.37 33.32C39.79 32.89 40.3 32.57 40.86 32.4L42.81 31.71L42.81 31.29C42.81 30.34 42.35 29.87 41.42 29.87C40.59 29.87 39.79 30.31 39 31.19L39 29.46C39.6 28.75 40.45 28.39 41.55 28.39C42.27 28.35 42.98 28.59 43.55 29.05C43.91 29.39 44.16 29.84 44.25 30.34C44.3 30.79 44.31 31.24 44.31 31.69L44.3 31.69ZM42.82 34.87L42.82 32.53L41.8 32.93C41.39 33.08 41.02 33.29 40.7 33.57C40.49 33.79 40.38 34.07 40.38 34.37C40.37 34.67 40.48 34.96 40.68 35.17C40.79 35.28 40.91 35.36 41.05 35.41C41.18 35.46 41.33 35.49 41.47 35.48C41.72 35.47 41.97 35.42 42.2 35.31C42.43 35.21 42.64 35.06 42.82 34.87L42.82 34.87Z" fill="#FFFFFF" fill-opacity="1.000000" fill-rule="nonzero"/>
		<path d="M48.4 28.54L48.4 30.35L48.48 30.21C49.22 28.99 49.96 28.38 50.69 28.38C51.26 28.38 51.86 28.68 52.48 29.27L51.68 30.64C51.15 30.13 50.66 29.87 50.21 29.87C49.96 29.88 49.71 29.95 49.49 30.07C49.26 30.2 49.08 30.37 48.93 30.59C48.57 31.08 48.38 31.68 48.4 32.3L48.4 36.43L46.87 36.43L46.87 28.54L48.4 28.54Z" fill="#FFFFFF" fill-opacity="1.000000" fill-rule="nonzero"/>
		<path d="M54.33 25.22C54.45 25.22 54.57 25.24 54.68 25.29C54.79 25.33 54.89 25.4 54.98 25.49C55.06 25.57 55.13 25.67 55.18 25.78C55.22 25.9 55.25 26.02 55.24 26.14C55.25 26.26 55.22 26.38 55.18 26.49C55.13 26.61 55.06 26.71 54.98 26.79C54.89 26.88 54.79 26.95 54.68 27C54.57 27.04 54.45 27.07 54.33 27.07C54.22 27.07 54.1 27.04 54 26.99C53.89 26.95 53.79 26.88 53.72 26.79C53.63 26.7 53.56 26.6 53.52 26.49C53.47 26.38 53.45 26.26 53.45 26.14C53.45 26.02 53.47 25.9 53.52 25.79C53.56 25.68 53.63 25.58 53.72 25.5C53.79 25.41 53.89 25.34 54 25.29C54.1 25.25 54.22 25.22 54.33 25.22ZM53.58 28.54L55.11 28.54L55.11 36.43L53.59 36.43L53.58 28.54Z" fill="#FFFFFF" fill-opacity="1.000000" fill-rule="nonzero"/>
	</g>
</svg>
